# AST/ASF file generated using VICON BodyLanguage
# -----------------------------------------------
:version 1.10
:name VICON
:units
  mass 1.0
  length 0.45
  angle deg
:documentation
   .ast/.asf automatically generated from VICON data using
   VICON BodyBuilder and BodyLanguage model FoxedUp or BRILLIANT.MOD
:root
   order TX TY TZ RX RY RZ
   axis XYZ
   position 0 0 0  
   orientation 0 0 0 
:bonedata
  begin
     id 1 
     name lhipjoint
     direction 0.700308 -0.549349 0.455834 
     length 2.59063 
     axis 0 0 0  XYZ
  end
  begin
     id 2 
     name lfemur
     direction 0.34202 -0.939693 0  
     length 6.31066  
     axis 0 0 20  XYZ
    dof rx ry rz
    limits (-160.0 20.0)
           (-70.0 70.0)
           (-60.0 70.0)
  end
  begin
     id 3 
     name ltibia
     direction 0.34202 -0.939693 0   
     length 7.36093   
     axis 0 0 20   XYZ
    dof rx
    limits (-10.0 170.0)
  end
  begin
     id 4 
     name lfoot
     direction 0.0905332 -0.248738 0.96433   
     length 2.0233   
     axis -90 7.62852e-016 20   XYZ
    dof rx rz
    limits (-45.0 90.0)
           (-70.0 20.0)
  end
  begin
     id 5 
     name ltoes
     direction 1.53573e-011 -4.21855e-011 1   
     length 1.01524   
     axis -90 7.62852e-016 20   XYZ
    dof rx
    limits (-90.0 20.0)
  end
  begin
     id 6 
     name rhipjoint
     direction -0.61416 -0.607328 0.503944   
     length 2.34332  
     axis 0 0 0  XYZ 
  end
  begin
     id 7 
     name rfemur
     direction -0.34202 -0.939693 0   
     length 6.58548   
     axis 0 0 -20   XYZ
    dof rx ry rz
    limits (-160.0 20.0)
           (-70.0 70.0)
           (-70.0 60.0)
  end
  begin
     id 8 
     name rtibia
     direction -0.34202 -0.939693 0   
     length 7.20707   
     axis 0 0 -20   XYZ
    dof rx
    limits (-10.0 170.0)
 end
 begin
     id 9 
     name rfoot
     direction -0.136772 -0.375778 0.916561   
     length 1.92184  
     axis -90 -7.62852e-016 -20   XYZ
    dof rx rz
    limits (-45.0 90.0)
           (-20.0 70.0)
  end
  begin
     id 10 
     name rtoes
     direction -1.53535e-011 -4.21828e-011 1   
     length 0.951089   
     axis -90 -7.62852e-016 -20   XYZ
    dof rx
    limits (-90.0 20.0)
  end
  begin
     id 11 
     name lowerback
     direction -0.0444974 0.988086 -0.147332   
     length 1.9609   
     axis 0 0 0   XYZ
    dof rx ry rz
    limits (-20.0 45.0)
           (-30.0 30.0)
           (-30.0 30.0)
  end
  begin
     id 12 
     name upperback
     direction 0.00613146 0.999513 0.0306081   
     length 1.94944   
     axis 0 0 0   XYZ
    dof rx ry rz
    limits (-20.0 45.0)
           (-30.0 30.0)
           (-30.0 30.0)
  end
  begin
     id 13 
     name thorax
     direction 0.0254621 0.994518 0.101418   
     length 2.0119   
     axis 0 0 0   XYZ
    dof rx ry rz
    limits (-20.0 45.0)
           (-30.0 30.0)
           (-30.0 30.0)
  end
  begin
     id 14 
     name lowerneck
     direction 0.0168698 0.977854 0.208608   
     length 1.6375   
     axis 0 0 0   XYZ
    dof rx ry rz
    limits (-20.0 45.0)
           (-30.0 30.0)
           (-30.0 30.0)
  end
  begin
     id 15 
     name upperneck
     direction -0.0283988 0.989338 -0.142843   
     length 1.6851   
     axis 0 0 0   XYZ
    dof rx ry rz
    limits (-20.0 45.0)
           (-30.0 30.0)
           (-30.0 30.0)
  end
  begin
     id 16
     name head
     direction -0.0129422 0.99741 -0.0707489  
     length 1.69029  
     axis 0 0 0   XYZ
    dof rx ry rz
    limits (-20.0 45.0)
           (-30.0 30.0)
           (-30.0 30.0)
  end
  begin
     id 17 
     name lclavicle
     direction 0.820295 0.564628 -0.0911715  
     length 3.16484  
     axis 0 0 0   XYZ
    dof ry rz
    limits (-20.0 10.0)
           (0.0 20.0)
  end
  begin
     id 18 
     name lhumerus
     direction 1 -4.48969e-011 1.00186e-027   
     length 5.17853   
     axis 180 -30 -90   XYZ
    dof rx ry rz
    limits (-60.0 90.0)
           (-90.0 90.0)
           (-90.0 90.0)
  end
  begin
     id 19
     name lradius
     direction 1 -4.48966e-011 -1.52922e-027   
     length 3.40399   
     axis 180 -30 -90   XYZ
    dof rx
    limits (-10.0 170.0)
  end
  begin
     id 20
     name lwrist
     direction 1 -4.48981e-011 -3.80893e-027   
     length 1.70199   
     axis 1.1049e-015 90 90   XYZ
    dof ry
    limits (-180.0 0.0)
 end
  begin
     id 21 
     name lhand
     direction 1 -4.48957e-011 -7.61786e-027   
     length 0.708964   
     axis 4.86085e-015 90 90   XYZ
    dof rx rz
    limits (-90.0 90.0)
           (-45.0 45.0)
  end
  begin
     id 22 
     name lfingers
     direction 1 -4.48929e-011 -1.52357e-026   
     length 0.571585   
     axis 9.7217e-015 90 90   XYZ
    dof rx
    limits (0.0 90.0)
  end
  begin
     id 23
     name lthumb
     direction 0.707107 -6.34905e-011 0.707107   
     length 0.820685   
     axis -90 45 2.85299e-015   XYZ
    dof rx rz
    limits (-45.0 45.0)
           (-45.0 45.0)
  end
  begin
     id 24 
     name rclavicle
     direction -0.858602 0.463947 -0.218075   
     length 3.35137  
     axis 0 0 0   XYZ 
    dof ry rz
    limits (-10.0 20.0)
           (-20.0 0.0)
  end
  begin
     id 25 
     name rhumerus
     direction -1 -4.48969e-011 -1.98511e-027  
     length 5.42351   
     axis 180 30 90   XYZ
    dof rx ry rz
    limits (-90.0 60.0)
           (-90.0 90.0)
           (-90.0 90.0)
  end
  begin
     id 26 
     name rradius
     direction -1 -4.48961e-011 -2.82624e-027   
     length 3.42066   
     axis 180 30 90   XYZ
    dof rx
    limits (-10.0 170.0)
  end
  begin
     id 27 
     name rwrist
     direction -1 -4.48966e-011 -3.80893e-027   
     length 1.71033   
     axis 1.1049e-015 -90 -90   XYZ
    dof ry
    limits (-180.0 0.0)
  end
  begin
     id 28
     name rhand
     direction -1 -4.48964e-011 -7.61786e-027   
     length 0.743608   
     axis 4.86085e-015 -90 -90   XYZ
    dof rx rz
    limits (-90.0 90.0)
           (-45.0 45.0)
  end
  begin
     id 29
     name rfingers
     direction -1 -4.48961e-011 -1.52357e-026   
     length 0.599516   
     axis 9.7217e-015 -90 -90   XYZ
    dof rx
    limits (0.0 90.0)
  end
  begin
     id 30
     name rthumb
     direction -0.707107 -6.34913e-011 0.707107   
     length 0.860789   
     axis -90 -45 -2.85299e-015   XYZ
    dof rx rz
    limits (-45.0 45.0)
           (-45.0 45.0)
  end
:hierarchy
  begin
    root lhipjoint rhipjoint lowerback
    lhipjoint lfemur
    lfemur ltibia
    ltibia lfoot
    lfoot ltoes
    rhipjoint rfemur
    rfemur rtibia
    rtibia rfoot
    rfoot rtoes
    lowerback upperback
    upperback thorax
    thorax lowerneck lclavicle rclavicle
    lowerneck upperneck
    upperneck head
    lclavicle lhumerus
    lhumerus lradius
    lradius lwrist
    lwrist lhand lthumb
    lhand lfingers
    rclavicle rhumerus
    rhumerus rradius
    rradius rwrist
    rwrist rhand rthumb
    rhand rfingers
  end

#!OML:ASF E:\mmandel\Project 1\Capture day 1\Session 2\Subject.ASF
:FULLY-SPECIFIED
:DEGREES
173
root -4.74664 3.09061 0.0911226 134.717 -2.04559 -92.3665
lowerback 33.4213 -1.20223 -7.25353
upperback 6.96595 -4.49998 2.48956
thorax -8.6886 -2.38183 8.22623
lowerneck -15.751 -5.09217 -5.51785
upperneck 22.4504 -2.44472 -22.7356
head 9.72915 -4.44161 -7.62306
rclavicle 4.77083e-014 -1.18476e-013
rhumerus 34.2831 57.2701 -87.5158
rradius 51.9122
rwrist -32.5299
rhand -34.927 36.3637
rfingers 7.12502
rthumb -8.07431 6.53791
lclavicle 4.77083e-014 -1.18476e-013
lhumerus 56.9368 -5.88583 54.8479
lradius 23.5664
lwrist -41.6238
lhand -2.05826 -5.30303
lfingers 7.12502
lthumb 23.6175 23.2665
rfemur -71.465 10.1069 27.6975
rtibia 83.043
rfoot -2.48755 -1.52886
rtoes -19.3337
lfemur -2.81078 1.15312 -26.1026
ltibia 31.0986
lfoot 9.95904 4.44
ltoes 13.4252
174
root -4.73843 3.09299 0.0923168 134.784 -1.95187 -92.3148
lowerback 33.2897 -1.23284 -7.27811
upperback 6.97143 -4.52232 2.59205
thorax -8.62008 -2.396 8.35157
lowerneck -15.7448 -4.95625 -5.29352
upperneck 22.3903 -2.30553 -23.2425
head 9.71408 -4.42144 -7.83805
rclavicle 5.725e-014 9.38264e-014
rhumerus 34.2998 57.4303 -87.4515
rradius 51.9299
rwrist -32.5116
rhand -34.8433 36.3662
rfingers 7.12502
rthumb -7.99351 6.53732
lclavicle 5.725e-014 9.38264e-014
lhumerus 56.8519 -5.77426 54.8222
lradius 23.5288
lwrist -41.4386
lhand -2.04577 -5.19295
lfingers 7.12502
lthumb 23.6295 23.375
rfemur -71.609 10.1604 27.6515
rtibia 84.0216
rfoot -1.78252 -0.977228
rtoes -19.0499
lfemur -3.12786 1.25217 -25.9529
ltibia 31.5108
lfoot 9.76062 4.39246
ltoes 13.4374
175
root -4.72905 3.09439 0.0938541 134.905 -1.91002 -92.3346
lowerback 33.1103 -1.25743 -7.30697
upperback 6.98196 -4.54305 2.60945
thorax -8.53162 -2.40886 8.38348
lowerneck -15.6575 -4.88678 -5.06395
upperneck 22.2204 -2.28903 -23.5876
head 9.62865 -4.41998 -7.98654
rclavicle 2.54444e-014 -1.27222e-014
rhumerus 34.3893 57.5496 -87.3736
rradius 51.9417
rwrist -32.5599
rhand -34.7967 36.1619
rfingers 7.12502
rthumb -7.94859 6.33135
lclavicle 2.54444e-014 -1.27222e-014
lhumerus 56.8464 -5.66688 54.8412
lradius 23.4697
lwrist -41.4454
lhand -2.05487 -5.20608
lfingers 7.12502
lthumb 23.6208 23.363
rfemur -71.8055 10.216 27.4883
rtibia 85.0219
rfoot -1.09632 -0.478838
rtoes -18.631
lfemur -3.49736 1.24395 -25.9457
ltibia 31.8793
lfoot 9.68891 4.43492
ltoes 13.5186
176
root -4.71985 3.09805 0.0932084 134.982 -1.89326 -92.3866
lowerback 32.9749 -1.26683 -7.37363
upperback 6.98891 -4.56441 2.58793
thorax -8.46315 -2.41959 8.39575
lowerneck -15.5203 -4.84406 -4.77984
upperneck 21.9999 -2.33146 -23.9525
head 9.50574 -4.43356 -8.1488
rclavicle 9.54166e-015 7.4743e-014
rhumerus 34.5486 57.7131 -87.1906
rradius 51.9441
rwrist -32.7457
rhand -34.7621 36.1346
rfingers 7.12502
rthumb -7.91516 6.30275
lclavicle 9.54166e-015 7.4743e-014
lhumerus 56.8467 -5.54542 54.9888
lradius 23.3844
lwrist -41.5735
lhand -2.11959 -5.20433
lfingers 7.12502
lthumb 23.5587 23.3727
rfemur -71.9342 10.2471 27.3139
rtibia 86.0688
rfoot -0.492169 -0.102024
rtoes -17.3987
lfemur -3.77548 1.2185 -25.9822
ltibia 32.1884
lfoot 9.66846 4.51682
ltoes 13.5696
177
root -4.7141 3.10308 0.0919557 135.042 -1.82524 -92.4249
lowerback 32.8454 -1.26843 -7.37467
upperback 7.00557 -4.55956 2.54991
thorax -8.39686 -2.42055 8.34603
lowerneck -15.4234 -4.80306 -4.42797
upperneck 21.7976 -2.37785 -24.3696
head 9.39424 -4.45076 -8.34753
rclavicle -5.40694e-014 5.1684e-014
rhumerus 34.7638 57.847 -86.9338
rradius 51.9604
rwrist -32.98
rhand -34.7106 36.6226
rfingers 7.12502
rthumb -7.86543 6.7889
lclavicle -5.40694e-014 5.1684e-014
lhumerus 56.9165 -5.48614 55.1308
lradius 23.2798
lwrist -41.6237
lhand -2.20804 -5.04053
lfingers 7.12502
lthumb 23.4738 23.5474
rfemur -71.9932 10.2913 27.2377
rtibia 87.1417
rfoot 0.114178 0.2756
rtoes -16.22
lfemur -3.97582 1.30529 -25.9337
ltibia 32.4432
lfoot 9.61426 4.57344
ltoes 13.6868
178
root -4.70791 3.10628 0.0910833 135.176 -1.74872 -92.5183
lowerback 32.4867 -1.17439 -7.53043
upperback 7.09296 -4.46394 2.6079
thorax -8.16126 -2.39405 8.43723
lowerneck -15.2632 -4.80225 -4.12012
upperneck 21.5107 -2.50169 -24.825
head 9.23161 -4.50143 -8.54854
rclavicle 1.59028e-014 3.81667e-014
rhumerus 35.1902 57.9146 -86.346
rradius 52.0473
rwrist -33.1452
rhand -34.7825 36.8054
rfingers 7.12502
rthumb -7.9348 6.97428
lclavicle 1.59028e-014 3.81667e-014
lhumerus 57.2463 -5.33095 55.503
lradius 23.0391
lwrist -41.683
lhand -2.08619 -4.95629
lfingers 7.12502
lthumb 23.5907 23.6167
rfemur -72.0867 10.3657 27.1377
rtibia 88.2243
rfoot 0.606465 0.618706
rtoes -16.2407
lfemur -4.24331 1.43418 -25.9311
ltibia 32.6656
lfoot 9.49305 4.60012
ltoes 13.6697
179
root -4.7002 3.10805 0.0934568 135.284 -1.67779 -92.5534
lowerback 32.5312 -1.22448 -7.44669
upperback 6.92831 -4.49493 2.52813
thorax -8.36435 -2.38037 8.32854
lowerneck -15.0012 -4.69649 -3.74084
upperneck 21.3904 -2.47181 -25.2587
head 9.12453 -4.48336 -8.74985
rclavicle 3.18055e-015 4.13472e-014
rhumerus 34.8223 57.9573 -86.7271
rradius 52.1108
rwrist -33.0987
rhand -34.83 36.6642
rfingers 7.12502
rthumb -7.9807 6.83491
lclavicle 3.18055e-015 4.13472e-014
lhumerus 57.1108 -5.14749 56.2889
lradius 22.8329
lwrist -42.417
lhand -2.00486 -5.12526
lfingers 7.12502
lthumb 23.6687 23.4376
rfemur -72.1346 10.3472 27.0711
rtibia 89.3249
rfoot 0.911902 0.749791
rtoes -17.4906
lfemur -4.49508 1.51789 -25.9053
ltibia 32.878
lfoot 9.31346 4.62686
ltoes 13.6
180
root -4.69128 3.10791 0.0956335 135.396 -1.64415 -92.603
lowerback 32.3245 -1.24603 -7.35688
upperback 6.95506 -4.48471 2.44091
thorax -8.26637 -2.38145 8.17112
lowerneck -14.8504 -4.63265 -3.2444
upperneck 21.1867 -2.52311 -25.7246
head 8.99464 -4.49201 -8.98993
rclavicle -7.4743e-014 1.89243e-013
rhumerus 34.8938 57.8839 -86.7219
rradius 52.1313
rwrist -33.0438
rhand -34.8862 36.7272
rfingers 7.12502
rthumb -8.03492 6.89997
lclavicle -7.4743e-014 1.89243e-013
lhumerus 57.2721 -5.07659 56.5166
lradius 22.7115
lwrist -42.7355
lhand -2.00797 -5.1741
lfingers 7.12502
lthumb 23.6657 23.3892
rfemur -72.2048 10.292 26.9313
rtibia 90.44
rfoot 1.43512 0.907837
rtoes -17.2129
lfemur -4.77087 1.57434 -25.9291
ltibia 33.118
lfoot 9.22537 4.67429
ltoes 13.5521
181
root -4.68021 3.10897 0.0971408 135.465 -1.57288 -92.6618
lowerback 32.2827 -1.21649 -7.34457
upperback 6.9148 -4.43961 2.43651
thorax -8.30276 -2.35525 8.14527
lowerneck -14.6893 -4.56241 -2.88367
upperneck 21.0309 -2.53964 -26.2056
head 8.8901 -4.50312 -9.2163
rclavicle 1.59028e-015 -1.7334e-013
rhumerus 34.8782 57.9146 -86.6632
rradius 52.1656
rwrist -33.0025
rhand -34.9677 36.8323
rfingers 7.12502
rthumb -8.11362 7.00806
lclavicle 1.59028e-015 -1.7334e-013
lhumerus 57.2986 -5.07624 56.7873
lradius 22.5594
lwrist -42.9097
lhand -2.11174 -5.09656
lfingers 7.12502
lthumb 23.5662 23.4795
rfemur -72.1692 10.2887 26.8272
rtibia 91.5286
rfoot 2.21054 1.19838
rtoes -14.5374
lfemur -5.01125 1.64674 -25.9233
ltibia 33.3886
lfoot 9.19058 4.73606
ltoes 13.5635
182
root -4.6694 3.11003 0.103463 135.546 -1.38163 -92.5849
lowerback 32.2256 -1.23454 -7.17797
upperback 6.85524 -4.39743 2.47663
thorax -8.3629 -2.33045 8.08665
lowerneck -14.4216 -4.49923 -2.579
upperneck 20.8573 -2.57355 -26.5982
head 8.75752 -4.51012 -9.39074
rclavicle 8.11041e-014 -7.87187e-014
rhumerus 34.7854 57.9558 -86.667
rradius 52.2413
rwrist -32.9324
rhand -34.8075 36.6395
rfingers 7.12502
rthumb -7.95895 6.80938
lclavicle 8.11041e-014 -7.87187e-014
lhumerus 57.2769 -5.09836 56.8272
lradius 22.5049
lwrist -42.8723
lhand -2.12323 -5.1277
lfingers 7.12502
lthumb 23.5552 23.4498
rfemur -72.0892 10.2778 26.9397
rtibia 92.5946
rfoot 2.76078 1.42875
rtoes -13.5934
lfemur -5.29667 1.70594 -25.7269
ltibia 33.6924
lfoot 9.10598 4.78861
ltoes 13.6072
